<?xml version="1.0" encoding="utf-8"?>
<!-- Generator: Adobe Illustrator 25.1.0, SVG Export Plug-In . SVG Version: 6.00 Build 0)  -->
<svg version="1.1" id="Capa_1" xmlns="http://www.w3.org/2000/svg" xmlns:xlink="http://www.w3.org/1999/xlink" x="0px" y="0px"
	 viewBox="0 0 800 300" style="enable-background:new 0 0 800 300;" xml:space="preserve">
<style type="text/css">
	.st0{fill:#FFFFFF;}
	.st1{font-family:'TwCenMT-Bold';}
	.st2{font-size:150.3582px;}
	.st3{letter-spacing:2.86;}
	.st4{font-family:'TwCenMT-Regular';}
	.st5{font-size:42.0861px;}
	.st6{letter-spacing:1;}
</style>
<g>
	<text transform="matrix(1.0476 0 0 1 191.4604 204.5338)" class="st0 st1 st2 st3">OSMIKA</text>
	<g>
		<polygon class="st0" points="91.21,30.87 19.29,30.87 19.29,87.6 39.59,109.95 39.59,51.94 70.91,51.81 70.91,127.52 
			91.21,127.52 91.21,51.73 91.21,51.73 		"/>
		<polygon class="st0" points="209.77,54.36 138.57,54.36 138.57,54.37 138.56,54.36 48.93,150.08 67.82,153.4 146.61,75.01 
			184.41,74.66 86.88,172.17 74.88,159.32 60.21,174.58 117.27,234.87 126.78,244.93 138.57,257.39 138.62,257.44 209.77,257.44 
			209.77,233.8 155.3,174.31 141.62,188.35 185.32,237.15 147.57,237.15 137.08,225.91 100.75,187.02 209.77,78 		"/>
		<polygon class="st0" points="138.63,257.44 138.57,257.44 138.57,257.39 		"/>
		<polygon class="st0" points="162.89,153.59 162.8,153.67 148.83,167.64 128.61,187.85 114.26,173.5 134.48,153.29 114.26,133.67 
			128.61,119.32 		"/>
		<path class="st0" d="M90.38,257.44l-0.02-37.96l-18.91-19.24v36.84H39.59v-55.44l28.24-28.24l0.09-0.08L39.59,125v-0.01
			l-20.3-22.64v134.73v0.21v20.09h0.07v0.07H90.38z M39.59,153.1l0.23,0.22l-0.23,0.22V153.1z"/>
	</g>
	<text transform="matrix(1 0 0 1 475.9867 257.44)" class="st0 st4 st5 st6">B O X  M E D I A</text>
</g>
</svg>
